<?xml version="1.0" standalone="no"?>
<!DOCTYPE svg PUBLIC "-//W3C//DTD SVG 20010904//EN"
 "http://www.w3.org/TR/2001/REC-SVG-20010904/DTD/svg10.dtd">
<svg version="1.0" xmlns="http://www.w3.org/2000/svg"
 width="212.000000pt" height="248.000000pt" viewBox="0 0 212.000000 248.000000"
 preserveAspectRatio="xMidYMid meet">

<g transform="translate(0.000000,248.000000) scale(0.100000,-0.100000)"
fill="#000000" stroke="none">
<path d="M12 1408 l3 -1063 27 -57 c31 -66 90 -127 156 -159 46 -24 54 -24
412 -29 345 -5 366 -6 392 -25 15 -11 32 -30 39 -43 16 -29 21 -28 42 7 34 59
51 61 420 61 288 0 342 2 387 17 70 23 159 104 191 175 l24 53 3 1063 2 1062
-1050 0 -1050 0 2 -1062z m2026 -13 c2 -1110 5 -1061 -58 -1137 -17 -20 -56
-49 -88 -65 l-57 -28 -360 -5 c-324 -4 -364 -7 -388 -23 -26 -17 -28 -17 -54
0 -24 16 -64 19 -388 23 l-360 5 -60 30 c-66 33 -117 91 -135 153 -11 41 -15
2044 -3 2055 3 4 443 6 977 5 l971 -3 3 -1010z"/>
<path d="M476 2135 c-55 -19 -87 -45 -114 -91 -33 -57 -28 -156 11 -208 33
-43 86 -72 159 -87 80 -17 88 -24 46 -42 -20 -8 -41 -24 -47 -35 -10 -20 -113
-52 -166 -52 l-25 0 0 -240 0 -240 286 2 287 3 30 54 c17 30 38 82 47 115 l17
61 61 3 c33 1 79 9 102 17 57 20 58 20 76 -19 20 -41 12 -102 -14 -110 -36
-12 -73 -52 -81 -88 l-9 -38 88 0 c87 0 88 0 117 33 19 22 34 56 47 111 l18
78 34 -5 c48 -8 103 -36 116 -60 9 -18 7 -23 -13 -36 -47 -31 -69 -60 -69 -91
l0 -30 83 0 c79 0 85 2 111 29 40 42 72 191 41 191 -34 0 -101 77 -120 139
l-7 24 27 -21 c36 -28 94 -29 129 -1 20 16 26 29 26 59 0 31 -9 50 -50 101
-56 70 -63 103 -27 137 32 30 37 28 37 -13 0 -25 8 -44 26 -62 24 -24 27 -24
42 -9 27 26 21 85 -12 112 -33 29 -61 30 -103 4 -61 -37 -56 -109 12 -187 65
-75 61 -133 -11 -133 -41 0 -73 36 -102 117 -12 32 -37 77 -57 100 l-35 41 28
7 c71 17 175 110 226 201 25 45 66 147 66 165 0 7 -98 9 -297 7 -321 -3 -329
-5 -390 -61 -25 -23 -28 -18 -14 31 l10 32 -302 0 c-233 -1 -311 -4 -341 -15z
m592 -56 c-14 -52 -41 -64 -122 -51 -36 5 -78 5 -109 0 -36 -7 -64 -6 -90 2
-22 6 -41 10 -43 7 -2 -2 1 -17 6 -34 10 -26 8 -36 -14 -68 -31 -45 -46 -95
-46 -153 0 -37 -2 -42 -17 -34 -10 6 -54 19 -97 31 -92 25 -127 48 -150 95
-40 85 -8 178 76 220 l52 26 282 0 282 0 -10 -41z m702 29 c0 -6 -16 -45 -36
-85 -45 -90 -122 -171 -199 -208 -50 -25 -72 -29 -188 -34 -109 -5 -139 -10
-174 -29 l-43 -22 0 63 c0 61 -25 136 -49 151 -44 28 54 138 149 167 44 13
540 11 540 -3z m-798 -119 c10 -5 27 -5 43 1 26 10 27 9 21 -13 -4 -17 0 -30
14 -42 56 -50 65 -188 20 -279 -25 -49 -112 -146 -150 -166 -19 -10 -20 -8
-20 60 l0 70 -79 0 -80 0 -28 58 c-41 83 -40 160 5 231 17 29 32 61 32 71 0
16 4 18 22 11 13 -5 38 -3 62 5 41 13 106 10 138 -7z m818 -232 c0 -33 -25
-12 -28 24 -2 32 -1 33 13 15 8 -11 15 -28 15 -39z m-299 -39 c40 -41 55 -77
64 -153 10 -96 31 -139 90 -193 l54 -48 -14 -59 c-17 -76 -40 -94 -117 -95
-79 0 -77 5 21 79 l25 18 -20 34 c-24 41 -76 72 -150 88 -32 8 -73 26 -99 47
-25 19 -50 34 -56 34 -6 0 -44 -13 -86 -30 -59 -24 -90 -30 -148 -30 l-74 0
-7 -37 c-9 -53 -44 -145 -60 -163 -12 -12 -14 3 -14 106 l0 121 59 46 c33 25
74 67 93 92 18 25 47 65 63 87 17 23 50 52 74 65 39 20 58 23 157 23 l112 0
33 -32z m-817 -50 c23 -22 30 -37 27 -64 -1 -14 -149 -16 -157 -2 -12 18 7 58
34 72 39 21 67 19 96 -6z m-157 -79 c11 -28 15 -30 50 -27 l38 3 3 -176 2
-176 -40 10 c-31 9 -54 7 -111 -6 -39 -9 -75 -15 -80 -11 -5 3 -9 90 -9 193
l0 188 63 15 c34 9 64 16 67 17 3 0 11 -13 17 -30z m353 -209 l0 -210 -115 0
-115 0 2 198 3 197 31 -3 c19 -2 36 3 44 12 9 12 31 16 81 16 l69 0 0 -210z
m463 28 c23 -18 44 -34 46 -35 1 -1 -5 -37 -15 -80 -24 -103 -45 -123 -126
-123 -71 0 -72 10 -5 60 57 42 68 82 44 149 -25 71 -9 79 56 29z m-740 -227
c8 -8 -16 -11 -83 -10 l-95 1 45 13 c49 15 116 13 133 -4z"/>
<path d="M811 1929 c-29 -27 -41 -60 -41 -110 0 -26 5 -42 15 -45 8 -4 15 -14
15 -23 1 -24 52 -79 81 -86 21 -5 34 0 63 25 20 18 36 39 36 46 0 8 10 28 22
45 20 27 21 33 10 77 -19 70 -39 86 -115 89 -53 2 -68 -2 -86 -18z m71 -16
c10 -9 18 -11 18 -6 0 14 26 24 45 16 37 -13 61 -127 31 -139 -9 -3 -16 -14
-16 -23 0 -23 -19 -41 -36 -34 -17 6 -18 30 -1 36 6 3 -6 6 -28 6 -28 0 -36
-2 -26 -8 12 -8 12 -12 2 -25 -16 -19 -38 -11 -47 17 -3 12 -13 30 -21 39 -19
22 -11 76 18 112 24 30 36 32 61 9z m19 -221 c-28 -4 -40 6 -21 18 9 6 20 4
29 -3 12 -10 11 -13 -8 -15z"/>
<path d="M830 1840 c19 -13 30 -13 30 0 0 6 -10 10 -22 10 -19 0 -20 -2 -8
-10z"/>
<path d="M926 1835 c4 -8 7 -15 9 -15 1 0 8 7 15 15 10 13 9 15 -8 15 -15 0
-20 -5 -16 -15z"/>
<path d="M413 991 c-155 -71 -58 -292 101 -231 14 5 26 17 26 25 0 12 -4 14
-19 5 -58 -30 -135 4 -147 66 -16 85 72 154 147 114 16 -9 19 -7 19 8 0 35
-63 41 -127 13z"/>
<path d="M850 1004 c0 -3 16 -32 36 -65 l37 -59 -41 -65 c-39 -62 -40 -65 -19
-65 16 0 29 12 47 45 14 25 28 45 31 45 4 0 17 -20 29 -45 17 -35 27 -45 46
-45 13 0 24 2 24 4 0 2 -18 31 -41 64 l-40 61 34 53 c18 29 37 59 41 66 5 8 0
12 -16 12 -17 0 -29 -12 -47 -45 -13 -25 -27 -45 -30 -45 -4 0 -17 20 -29 45
-15 31 -28 45 -42 45 -11 0 -20 -3 -20 -6z"/>
<path d="M1070 990 c-10 -19 -9 -20 30 -14 l41 7 -3 -117 c-3 -115 -3 -116 20
-116 22 0 22 2 22 116 l0 117 34 -6 c31 -5 46 4 46 29 0 2 -40 4 -90 4 -79 0
-90 -2 -100 -20z"/>
<path d="M1331 993 c-121 -60 -74 -243 62 -243 40 0 96 35 114 70 30 60 3 144
-56 175 -38 19 -77 19 -120 -2z m120 -42 c50 -51 35 -148 -27 -172 -31 -11
-85 9 -108 42 -23 33 -21 100 5 133 30 38 90 37 130 -3z"/>
<path d="M1540 1004 c0 -3 7 -13 16 -22 14 -14 16 -33 12 -124 -5 -100 -4
-108 13 -108 16 0 19 10 21 87 l3 87 65 -86 c93 -124 100 -120 100 42 0 122
-1 130 -19 130 -18 0 -19 -6 -15 -97 l5 -98 -41 45 c-22 25 -57 68 -78 97 -25
36 -44 52 -59 53 -13 0 -23 -3 -23 -6z"/>
<path d="M622 875 c-59 -120 -61 -125 -38 -125 18 0 27 9 39 40 15 39 16 40
65 40 48 0 49 0 61 -40 10 -33 16 -40 37 -40 14 0 24 3 22 8 -2 4 -24 51 -50
105 -26 53 -50 106 -53 117 -3 11 -10 20 -13 20 -4 0 -35 -56 -70 -125z m86
15 c11 -29 10 -30 -19 -30 -16 0 -29 2 -29 4 0 1 5 17 11 34 13 37 23 34 37
-8z"/>
<path d="M420 674 c-50 -21 -69 -42 -81 -86 -20 -77 26 -147 103 -155 51 -6
98 10 98 32 0 12 -4 14 -19 5 -58 -30 -135 4 -147 66 -16 85 72 154 147 114
16 -9 19 -7 19 8 0 33 -62 41 -120 16z"/>
<path d="M634 671 c-68 -31 -94 -114 -54 -178 43 -71 144 -84 203 -25 23 23
31 41 34 79 5 58 -10 89 -56 120 -41 28 -73 29 -127 4z m117 -40 c24 -25 29
-38 29 -78 0 -39 -5 -54 -22 -70 -34 -30 -55 -34 -92 -19 -45 19 -66 52 -66
104 0 87 89 124 151 63z"/>
<path d="M868 560 l-3 -130 57 0 c47 0 59 4 68 20 10 18 9 20 -12 16 -13 -3
-34 -7 -48 -8 l-25 -3 2 118 c1 108 0 117 -17 117 -17 0 -19 -11 -22 -130z"/>
<path d="M1040 560 l0 -130 59 0 c45 0 60 4 65 16 9 23 7 23 -41 14 l-43 -7 0
118 c0 112 -1 119 -20 119 -19 0 -20 -7 -20 -130z"/>
<path d="M1210 560 l0 -130 64 0 c56 0 64 3 69 20 4 16 1 20 -11 16 -9 -2 -32
-7 -49 -11 l-33 -7 0 52 0 51 32 -3 c18 -2 33 2 35 10 3 8 -7 12 -31 12 l-36
0 0 46 0 46 37 -4 c29 -2 38 1 41 15 3 15 -5 17 -57 17 l-61 0 0 -130z"/>
<path d="M1443 671 c-65 -30 -92 -108 -61 -176 16 -35 77 -65 130 -64 72 1 79
7 82 72 3 53 1 57 -19 57 -19 0 -21 -5 -21 -47 1 -46 0 -48 -28 -51 -73 -9
-116 28 -116 99 0 62 34 99 92 99 22 0 48 -5 59 -10 16 -9 19 -7 19 8 0 36
-72 42 -137 13z"/>
<path d="M1650 688 c0 -2 -1 -60 -3 -131 l-2 -127 62 0 c52 0 64 3 73 20 10
18 8 19 -22 13 -69 -14 -73 -12 -73 37 0 44 1 45 30 44 46 -1 52 20 7 26 -36
5 -37 7 -40 49 l-3 44 40 -6 c36 -4 51 4 51 29 0 4 -120 6 -120 2z"/>
</g>
</svg>
