<?xml version="1.0" standalone="no"?>
<!DOCTYPE svg PUBLIC "-//W3C//DTD SVG 20010904//EN"
 "http://www.w3.org/TR/2001/REC-SVG-20010904/DTD/svg10.dtd">
<svg version="1.0" xmlns="http://www.w3.org/2000/svg"
 width="519.000000pt" height="519.000000pt" viewBox="0 0 519.000000 519.000000"
 preserveAspectRatio="xMidYMid meet">
<metadata>
Created by potrace 1.14, written by Peter Selinger 2001-2017
</metadata>
<g transform="translate(0.000000,519.000000) scale(0.100000,-0.100000)"
fill="#000000" stroke="none">
<path d="M1585 4849 c-111 -39 -223 -133 -269 -226 -10 -21 -23 -47 -30 -58
-14 -26 -21 -1255 -7 -1323 28 -138 61 -217 135 -329 119 -181 308 -319 516
-378 36 -10 84 -24 108 -31 23 -8 51 -14 62 -14 10 0 21 -4 24 -9 3 -5 27 -12
53 -16 27 -4 53 -10 58 -15 6 -4 30 -12 55 -18 91 -21 135 -34 150 -41 9 -5
36 -12 60 -16 25 -4 50 -11 55 -15 6 -4 30 -11 55 -15 24 -4 51 -11 60 -16 8
-4 40 -15 70 -23 105 -30 305 -88 348 -102 23 -8 47 -14 53 -14 5 0 40 -14 77
-31 122 -57 235 -195 265 -324 5 -22 10 -329 12 -682 1 -352 6 -647 10 -653 5
-9 23 -10 59 -6 200 27 352 162 400 356 14 57 16 137 13 620 -2 390 -7 570
-15 605 -17 70 -42 133 -69 177 -13 21 -23 40 -23 43 0 3 -19 31 -42 62 -54
71 -141 141 -226 182 -37 18 -74 36 -83 41 -9 5 -34 12 -55 16 -22 3 -43 10
-49 14 -5 4 -26 11 -45 14 -19 4 -44 11 -55 16 -11 4 -54 18 -95 30 -41 12
-93 28 -115 35 -22 7 -67 20 -100 30 -33 9 -79 23 -103 31 -23 8 -51 14 -62
14 -10 0 -21 4 -24 9 -3 5 -26 12 -51 15 -24 4 -47 11 -50 16 -3 4 -28 11 -55
15 -27 4 -52 11 -55 15 -3 4 -28 11 -55 15 -27 4 -52 11 -55 15 -3 5 -26 12
-50 16 -25 3 -47 10 -50 14 -3 5 -28 11 -55 15 -27 4 -52 11 -55 15 -3 5 -26
12 -50 16 -25 3 -48 10 -51 15 -3 5 -12 9 -20 9 -34 0 -145 66 -197 116 -63
61 -96 112 -129 200 -22 59 -23 63 -28 814 l-5 755 -80 2 c-60 2 -95 -3 -140
-18z"/>
<path d="M3455 4845 l-25 -24 0 -683 c0 -381 4 -689 9 -697 7 -11 26 -13 88
-7 43 3 80 11 81 16 2 6 10 10 18 10 9 0 40 12 71 26 77 35 180 139 221 224
58 121 62 154 62 561 0 421 -2 434 -74 512 -69 75 -105 87 -279 87 -144 0
-149 -1 -172 -25z"/>
<path d="M1675 1926 c-46 -12 -151 -58 -184 -81 -61 -43 -142 -139 -177 -211
l-39 -79 -3 -432 -3 -432 25 -49 c27 -54 66 -91 130 -125 36 -19 60 -22 188
-25 147 -4 147 -4 173 22 l25 25 -2 698 -3 698 -40 2 c-22 1 -62 -4 -90 -11z"/>
</g>
</svg>
